# xmcd CD database file
#
# Track frame offsets:
#	150
#	19394
#	39300
#	60285
#	81654
#	107889
#
# Disc length: 1797 seconds
#
# Revision: 0
# Processed by: cddbd v1.5.1PL0 Copyright (c) Steve Scherf et al.
# Submitted via: CDex 1.51
#
DISCID=48070306
DTITLE=ふるもとゆうこ - 木実の森
DYEAR=2004
DGENRE=JPop
TTITLE0=神秘
TTITLE1=約束のリング
TTITLE2=海と空
TTITLE3=街角
TTITLE4=AKI
TTITLE5=同じ空
EXTD=YEAR: 2004
EXTT0=
EXTT1=
EXTT2=
EXTT3=
EXTT4=
EXTT5=
PLAYORDER=
